<svg xmlns="http://www.w3.org/2000/svg" width="720" height="200" viewBox="0 0 720 200" font-family="-apple-system,Segoe UI,sans-serif" role="img" aria-label="일별 클론·조회 추이">
<title>일별 클론·조회 추이 (2026-07-28 ~ 2026-08-16)</title>
<line x1="34" y1="174.0" x2="710" y2="174.0" stroke="#8b949e" stroke-opacity=".25"/><text x="28" y="178.0" font-size="10" fill="#8b949e" text-anchor="end">0</text><line x1="34" y1="95.0" x2="710" y2="95.0" stroke="#8b949e" stroke-opacity=".25"/><text x="28" y="99.0" font-size="10" fill="#8b949e" text-anchor="end">128</text><line x1="34" y1="16.0" x2="710" y2="16.0" stroke="#8b949e" stroke-opacity=".25"/><text x="28" y="20.0" font-size="10" fill="#8b949e" text-anchor="end">256</text><text x="34.0" y="192" font-size="10" fill="#8b949e" text-anchor="start">07-28</text><text x="389.8" y="192" font-size="10" fill="#8b949e" text-anchor="middle">08-07</text><text x="710.0" y="192" font-size="10" fill="#8b949e" text-anchor="end">08-16</text>
<polyline fill="none" stroke="#3b82f6" stroke-width="2" points="34.0,174.0 69.6,174.0 105.2,173.4 140.7,174.0 176.3,174.0 211.9,172.1 247.5,174.0 283.1,174.0 318.6,174.0 354.2,172.1 389.8,174.0 425.4,174.0 460.9,174.0 496.5,174.0 532.1,95.0 567.7,16.0 603.3,167.8 638.8,169.1 674.4,174.0 710.0,174.0"/>
<polyline fill="none" stroke="#f59e0b" stroke-width="2" points="34.0,174.0 69.6,174.0 105.2,173.4 140.7,174.0 176.3,174.0 211.9,174.0 247.5,172.8 283.1,174.0 318.6,174.0 354.2,174.0 389.8,174.0 425.4,174.0 460.9,174.0 496.5,174.0 532.1,174.0 567.7,162.3 603.3,173.4 638.8,174.0 674.4,174.0 710.0,174.0"/>
<circle cx="570" cy="12" r="4" fill="#3b82f6"/>
<text x="580" y="16" font-size="11" fill="#8b949e">clones</text>
<circle cx="642" cy="12" r="4" fill="#f59e0b"/>
<text x="652" y="16" font-size="11" fill="#8b949e">views</text>
</svg>
