<svg xmlns="http://www.w3.org/2000/svg" width="720" height="200" viewBox="0 0 720 200" font-family="-apple-system,Segoe UI,sans-serif" role="img" aria-label="일별 클론·조회 추이">
<title>일별 클론·조회 추이 (2026-07-28 ~ 2026-09-30)</title>
<line x1="34" y1="174.0" x2="710" y2="174.0" stroke="#8b949e" stroke-opacity=".25"/><text x="28" y="178.0" font-size="10" fill="#8b949e" text-anchor="end">0</text><line x1="34" y1="95.0" x2="710" y2="95.0" stroke="#8b949e" stroke-opacity=".25"/><text x="28" y="99.0" font-size="10" fill="#8b949e" text-anchor="end">128</text><line x1="34" y1="16.0" x2="710" y2="16.0" stroke="#8b949e" stroke-opacity=".25"/><text x="28" y="20.0" font-size="10" fill="#8b949e" text-anchor="end">256</text><text x="34.0" y="192" font-size="10" fill="#8b949e" text-anchor="start">07-28</text><text x="372.0" y="192" font-size="10" fill="#8b949e" text-anchor="middle">08-29</text><text x="710.0" y="192" font-size="10" fill="#8b949e" text-anchor="end">09-30</text>
<polyline fill="none" stroke="#3b82f6" stroke-width="2" points="34.0,174.0 44.6,174.0 55.1,173.4 65.7,174.0 76.2,174.0 86.8,172.1 97.4,174.0 107.9,174.0 118.5,174.0 129.1,172.1 139.6,174.0 150.2,174.0 160.8,174.0 171.3,174.0 181.9,95.0 192.4,16.0 203.0,167.8 213.6,169.1 224.1,170.3 234.7,168.4 245.2,169.1 255.8,167.2 266.4,169.1 276.9,168.4 287.5,168.4 298.1,168.4 308.6,169.1 319.2,166.6 329.8,167.8 340.3,168.4 350.9,164.1 361.4,168.4 372.0,167.2 382.6,162.3 393.1,167.2 403.7,167.8 414.2,167.8 424.8,168.4 435.4,167.8 445.9,169.1 456.5,174.0 467.1,174.0 477.6,174.0 488.2,174.0 498.8,174.0 509.3,174.0 519.9,174.0 530.4,174.0 541.0,174.0 551.6,174.0 562.1,174.0 572.7,174.0 583.2,174.0 593.8,174.0 604.4,174.0 614.9,174.0 625.5,174.0 636.1,174.0 646.6,174.0 657.2,174.0 667.8,174.0 678.3,174.0 688.9,174.0 699.4,174.0 710.0,174.0"/>
<polyline fill="none" stroke="#f59e0b" stroke-width="2" points="34.0,174.0 44.6,174.0 55.1,173.4 65.7,174.0 76.2,174.0 86.8,174.0 97.4,172.8 107.9,174.0 118.5,174.0 129.1,174.0 139.6,174.0 150.2,174.0 160.8,174.0 171.3,174.0 181.9,174.0 192.4,162.3 203.0,173.4 213.6,174.0 224.1,174.0 234.7,174.0 245.2,174.0 255.8,174.0 266.4,174.0 276.9,174.0 287.5,174.0 298.1,173.4 308.6,174.0 319.2,174.0 329.8,174.0 340.3,174.0 350.9,174.0 361.4,174.0 372.0,174.0 382.6,172.1 393.1,174.0 403.7,174.0 414.2,174.0 424.8,172.1 435.4,174.0 445.9,174.0 456.5,174.0 467.1,174.0 477.6,174.0 488.2,174.0 498.8,174.0 509.3,174.0 519.9,174.0 530.4,174.0 541.0,174.0 551.6,174.0 562.1,174.0 572.7,174.0 583.2,174.0 593.8,174.0 604.4,174.0 614.9,174.0 625.5,174.0 636.1,174.0 646.6,174.0 657.2,174.0 667.8,174.0 678.3,174.0 688.9,174.0 699.4,174.0 710.0,174.0"/>
<circle cx="570" cy="12" r="4" fill="#3b82f6"/>
<text x="580" y="16" font-size="11" fill="#8b949e">clones</text>
<circle cx="642" cy="12" r="4" fill="#f59e0b"/>
<text x="652" y="16" font-size="11" fill="#8b949e">views</text>
</svg>
